<?xml version="1.0" encoding="utf-8"?>
<!-- Generator: Adobe Illustrator 16.0.0, SVG Export Plug-In . SVG Version: 6.00 Build 0)  -->
<!DOCTYPE svg PUBLIC "-//W3C//DTD SVG 1.1//EN" "http://www.w3.org/Graphics/SVG/1.1/DTD/svg11.dtd">
<svg version="1.1" id="Layer_1" xmlns="http://www.w3.org/2000/svg" xmlns:xlink="http://www.w3.org/1999/xlink" x="0px" y="0px"
	 width="36px" height="36px" viewBox="0 0 36 36" enable-background="new 0 0 36 36" xml:space="preserve">
<g>
	<path fill="#FF6C63" d="M36.012,15.971c0,1.427-1.146,2.572-2.572,2.572v7.717c0,1.406-1.166,2.572-2.57,2.572
		c-3.577-2.975-9.346-7.055-16.317-7.637c-2.393,0.805-3.217,3.598-1.65,5.205c-1.406,2.311,0.402,3.938,2.532,5.605
		c-1.246,2.451-6.431,2.491-8.279,0.783c-1.166-3.577-2.894-7.154-1.487-11.676H3.215C1.447,21.115,0,19.668,0,17.9v-3.858
		c0-1.769,1.447-3.215,3.215-3.215h9.646c7.717,0,14.147-4.501,18.006-7.717c1.406,0,2.572,1.166,2.572,2.572v7.717
		C34.866,13.398,36.012,14.544,36.012,15.971z M30.867,6.365c-5.245,4.02-10.329,6.331-15.434,6.893v5.426
		c5.104,0.563,10.188,2.834,15.434,6.854V6.365z"/>
</g>
<g>
	<path fill="#BFC1C5" d="M10.321,34.063c0,1.065-0.864,1.931-1.929,1.931H1.96c-1.064,0-1.929-0.864-1.929-1.931v-6.43
		c0-1.064,0.864-1.93,1.929-1.93h6.432c1.064,0,1.929,0.863,1.929,1.93V34.063z M7.32,30.633l-1.93-1.929l-3.644,3.644v1.93h1.929
		L7.32,30.633z M3.756,33.286l-0.349,0.349H3.033v-0.644H2.39v-0.375l0.348-0.349L3.756,33.286z M5.491,29.855l-1.949,1.949
		c-0.06,0.061-0.153,0.073-0.2,0.021c-0.054-0.047-0.041-0.141,0.02-0.201l1.949-1.949c0.061-0.061,0.154-0.074,0.201-0.021
		C5.565,29.702,5.551,29.796,5.491,29.855z M8.365,29.588c0.248-0.248,0.248-0.662,0-0.91l-1.019-1.019
		c-0.247-0.248-0.663-0.248-0.91,0L5.82,28.275l1.929,1.93L8.365,29.588z"/>
</g>
</svg>
