<?xml version="1.0" encoding="utf-8"?>
<!-- Generator: Adobe Illustrator 16.0.0, SVG Export Plug-In . SVG Version: 6.00 Build 0)  -->
<!DOCTYPE svg PUBLIC "-//W3C//DTD SVG 1.1//EN" "http://www.w3.org/Graphics/SVG/1.1/DTD/svg11.dtd">
<svg version="1.1" id="Layer_1" xmlns="http://www.w3.org/2000/svg" xmlns:xlink="http://www.w3.org/1999/xlink" x="0px" y="0px"
	 width="36px" height="36px" viewBox="0 0 36 36" enable-background="new 0 0 36 36" xml:space="preserve">
<g>
	<path fill="#FF6C63" d="M36.012,15.971c0,1.427-1.146,2.572-2.572,2.572v7.717c0,1.406-1.166,2.572-2.571,2.572
		c-3.577-2.975-9.345-7.055-16.317-7.637c-2.393,0.805-3.217,3.598-1.65,5.205c-1.406,2.311,0.402,3.938,2.532,5.606
		c-1.246,2.451-6.431,2.491-8.279,0.783c-1.166-3.577-2.894-7.154-1.487-11.676H3.215C1.447,21.115,0,19.668,0,17.9v-3.858
		c0-1.769,1.447-3.215,3.215-3.215h9.646c7.717,0,14.147-4.501,18.006-7.717c1.406,0,2.572,1.166,2.572,2.572v7.717
		C34.866,13.398,36.012,14.544,36.012,15.971z M30.867,6.365c-5.245,4.02-10.329,6.331-15.434,6.893v5.426
		c5.104,0.563,10.188,2.834,15.434,6.854V6.365z"/>
</g>
<g>
	<path fill="#BFC1C5" d="M35.936,35.3c0,0.354-0.288,0.643-0.643,0.643h-6.432c-0.354,0-0.643-0.288-0.643-0.643V31.44
		c0-0.354,0.288-0.643,0.643-0.643h0.215v-1.286c0-1.647,1.354-3.001,3.001-3.001s3.001,1.354,3.001,3.001v1.286h0.215
		c0.354,0,0.643,0.288,0.643,0.643V35.3z M33.792,30.798v-1.286c0-0.944-0.771-1.715-1.715-1.715s-1.715,0.771-1.715,1.715v1.286
		H33.792z"/>
</g>
<g>
	<path fill="#BFC1C5" d="M10.32,34.054c0,1.065-0.863,1.931-1.928,1.931H1.96c-1.063,0-1.929-0.864-1.929-1.931v-6.43
		c0-1.064,0.863-1.93,1.929-1.93h6.433c1.063,0,1.928,0.863,1.928,1.93V34.054z M7.32,30.624l-1.93-1.929l-3.645,3.644v1.93h1.929
		L7.32,30.624z M3.756,33.277l-0.349,0.349H3.033v-0.644H2.391v-0.375l0.348-0.349L3.756,33.277z M5.491,29.847l-1.949,1.949
		c-0.06,0.061-0.153,0.073-0.2,0.021c-0.054-0.047-0.041-0.141,0.02-0.201l1.949-1.949c0.062-0.061,0.154-0.074,0.201-0.021
		C5.564,29.693,5.551,29.787,5.491,29.847z M8.365,29.579c0.248-0.248,0.248-0.662,0-0.91l-1.02-1.019
		c-0.246-0.248-0.662-0.248-0.91,0L5.82,28.267l1.929,1.93L8.365,29.579z"/>
</g>
</svg>
