<?xml version="1.0" encoding="utf-8"?>
<!-- Generator: Adobe Illustrator 16.0.0, SVG Export Plug-In . SVG Version: 6.00 Build 0)  -->
<!DOCTYPE svg PUBLIC "-//W3C//DTD SVG 1.1//EN" "http://www.w3.org/Graphics/SVG/1.1/DTD/svg11.dtd">
<svg version="1.1" id="Layer_1" xmlns="http://www.w3.org/2000/svg" xmlns:xlink="http://www.w3.org/1999/xlink" x="0px" y="0px"
	 width="36px" height="36px" viewBox="0 0 36 36" enable-background="new 0 0 36 36" xml:space="preserve">
<g>
	<path fill="#DCDEE3" d="M14.147,24.355c-1.226,0-2.412-0.121-3.537-0.321c-1.667,1.186-3.557,2.05-5.586,2.572
		c-0.542,0.141-1.125,0.241-1.728,0.321c-0.021,0-0.041,0-0.061,0c-0.301,0-0.583-0.241-0.643-0.583
		c-0.08-0.382,0.181-0.622,0.402-0.884c0.784-0.885,1.668-1.668,2.352-3.336C2.09,20.236,0,17.322,0,14.066
		C0,8.379,6.33,3.777,14.147,3.777s14.147,4.602,14.147,10.289C28.295,19.754,21.965,24.355,14.147,24.355z M30.666,27.27
		c0.684,1.668,1.567,2.451,2.352,3.336c0.221,0.261,0.482,0.502,0.401,0.884c-0.08,0.362-0.382,0.623-0.703,0.583
		c-0.603-0.08-1.186-0.181-1.729-0.321c-2.029-0.522-3.918-1.387-5.586-2.572c-1.126,0.2-2.312,0.321-3.537,0.321
		c-3.638,0-6.974-1.005-9.485-2.652c0.583,0.04,1.186,0.08,1.769,0.08c4.32,0,8.4-1.246,11.515-3.496
		c3.356-2.452,5.205-5.768,5.205-9.365c0-1.045-0.161-2.07-0.462-3.055c3.396,1.869,5.606,4.843,5.606,8.199
		C36.012,22.486,33.922,25.381,30.666,27.27z"/>
</g>
</svg>
