<?xml version="1.0" encoding="utf-8"?>
<!-- Generator: Adobe Illustrator 16.0.0, SVG Export Plug-In . SVG Version: 6.00 Build 0)  -->
<!DOCTYPE svg PUBLIC "-//W3C//DTD SVG 1.1//EN" "http://www.w3.org/Graphics/SVG/1.1/DTD/svg11.dtd">
<svg version="1.1" id="Layer_1" xmlns="http://www.w3.org/2000/svg" xmlns:xlink="http://www.w3.org/1999/xlink" x="0px" y="0px"
	 width="36px" height="36px" viewBox="0 0 36 36" enable-background="new 0 0 36 36" xml:space="preserve">
<g>
	<path fill="#DCDEE3" d="M33.589,9.421C35.196,11.397,36,13.55,36,15.88c0,2.33-0.804,4.483-2.411,6.458
		c-1.606,1.976-3.79,3.536-6.549,4.681s-5.772,1.718-9.04,1.718c-0.938,0-1.908-0.054-2.913-0.161
		c-2.651,2.344-5.732,3.965-9.241,4.861c-0.657,0.188-1.42,0.336-2.291,0.443c-0.228,0.025-0.432-0.034-0.613-0.182
		c-0.181-0.147-0.298-0.342-0.352-0.582v-0.021c-0.04-0.054-0.043-0.134-0.01-0.241c0.033-0.107,0.047-0.174,0.04-0.201
		c-0.007-0.026,0.023-0.09,0.09-0.19s0.107-0.161,0.121-0.181s0.061-0.077,0.141-0.171c0.081-0.094,0.134-0.154,0.161-0.181
		c0.094-0.107,0.301-0.338,0.623-0.693c0.321-0.355,0.552-0.609,0.693-0.764s0.348-0.418,0.623-0.793
		c0.274-0.375,0.492-0.717,0.653-1.025c0.161-0.307,0.341-0.703,0.542-1.185c0.201-0.481,0.375-0.991,0.522-1.526
		c-2.103-1.192-3.76-2.666-4.972-4.42C0.606,19.771,0,17.889,0,15.88c0-1.741,0.475-3.405,1.426-4.992
		c0.951-1.587,2.23-2.957,3.837-4.108c1.607-1.152,3.522-2.066,5.746-2.742C13.231,3.361,15.563,3.023,18,3.023
		c3.268,0,6.281,0.573,9.04,1.718S31.982,7.446,33.589,9.421z"/>
</g>
<g>
</g>
<g>
</g>
<g>
</g>
<g>
</g>
<g>
</g>
<g>
</g>
</svg>
