<?xml version="1.0" encoding="utf-8"?>
<!-- Generator: Adobe Illustrator 16.0.0, SVG Export Plug-In . SVG Version: 6.00 Build 0)  -->
<!DOCTYPE svg PUBLIC "-//W3C//DTD SVG 1.1//EN" "http://www.w3.org/Graphics/SVG/1.1/DTD/svg11.dtd">
<svg version="1.1" id="Layer_1" xmlns="http://www.w3.org/2000/svg" xmlns:xlink="http://www.w3.org/1999/xlink" x="0px" y="0px"
	 width="36px" height="36px" viewBox="0 0 36 36" enable-background="new 0 0 36 36" xml:space="preserve">
<g>
	<path fill="#FF6C63" d="M33.589,9.421C35.195,11.397,36,13.55,36,15.88s-0.805,4.483-2.411,6.458
		c-1.606,1.977-3.79,3.536-6.549,4.682c-2.759,1.145-5.772,1.717-9.04,1.717c-0.938,0-1.908-0.053-2.913-0.16
		c-2.651,2.344-5.732,3.965-9.241,4.861c-0.657,0.188-1.42,0.336-2.291,0.442c-0.228,0.024-0.432-0.034-0.613-0.182
		s-0.298-0.343-0.352-0.582v-0.021c-0.04-0.055-0.043-0.135-0.01-0.242c0.033-0.106,0.047-0.174,0.04-0.201
		c-0.007-0.025,0.023-0.09,0.09-0.189s0.107-0.161,0.121-0.181c0.014-0.021,0.061-0.077,0.141-0.171
		c0.081-0.094,0.134-0.154,0.161-0.182c0.094-0.106,0.301-0.338,0.623-0.693c0.321-0.354,0.552-0.608,0.693-0.764
		c0.141-0.154,0.348-0.418,0.623-0.793c0.274-0.375,0.492-0.717,0.653-1.025c0.161-0.307,0.341-0.702,0.542-1.184
		c0.201-0.481,0.375-0.992,0.522-1.527c-2.103-1.191-3.76-2.666-4.972-4.42C0.606,19.771,0,17.889,0,15.88
		c0-1.741,0.475-3.405,1.426-4.992c0.951-1.587,2.23-2.957,3.837-4.108c1.607-1.152,3.522-2.066,5.746-2.742
		C13.231,3.361,15.563,3.023,18,3.023c3.268,0,6.281,0.573,9.04,1.718C29.799,5.886,31.982,7.446,33.589,9.421z"/>
</g>
</svg>
