<?xml version="1.0" encoding="utf-8"?>
<!-- Generator: Adobe Illustrator 16.0.0, SVG Export Plug-In . SVG Version: 6.00 Build 0)  -->
<!DOCTYPE svg PUBLIC "-//W3C//DTD SVG 1.1//EN" "http://www.w3.org/Graphics/SVG/1.1/DTD/svg11.dtd">
<svg version="1.1" id="Layer_1" xmlns="http://www.w3.org/2000/svg" xmlns:xlink="http://www.w3.org/1999/xlink" x="0px" y="0px"
	 width="36px" height="36px" viewBox="0 0 36 36" enable-background="new 0 0 36 36" xml:space="preserve">
<g>
	<path fill="#DCDEE3" d="M27.642,28.177c0,0.889-0.72,1.607-1.607,1.607H9.966c-0.888,0-1.607-0.721-1.607-1.607v-9.641
		c0-0.889,0.72-1.607,1.607-1.607h0.535v-3.214c0-4.118,3.381-7.499,7.499-7.499s7.499,3.381,7.499,7.499v3.214h0.535
		c0.888,0,1.607,0.721,1.607,1.607V28.177L27.642,28.177z M22.285,16.929v-3.214c0-2.36-1.925-4.285-4.285-4.285
		s-4.285,1.925-4.285,4.285v3.214H22.285z"/>
</g>
</svg>
