<?xml version="1.0" encoding="utf-8"?>
<!-- Generator: Adobe Illustrator 16.0.0, SVG Export Plug-In . SVG Version: 6.00 Build 0)  -->
<!DOCTYPE svg PUBLIC "-//W3C//DTD SVG 1.1//EN" "http://www.w3.org/Graphics/SVG/1.1/DTD/svg11.dtd">
<svg version="1.1" id="Layer_1" xmlns="http://www.w3.org/2000/svg" xmlns:xlink="http://www.w3.org/1999/xlink" x="0px" y="0px"
	 width="36px" height="36px" viewBox="0 0 36 36" enable-background="new 0 0 36 36" xml:space="preserve">
<g>
	<path fill="#FF6C63" d="M25.518,25.348h-6.225l-0.74,7.009c-0.029,0.232-0.218,0.421-0.45,0.421h-0.015
		c-0.231,0-0.42-0.159-0.464-0.392l-1.103-7.038h-5.862c-0.508,0-0.929-0.421-0.929-0.929c0-2.38,1.799-4.644,3.715-4.644v-7.43
		c-1.016,0-1.857-0.842-1.857-1.857s0.842-1.857,1.857-1.857h9.288c1.016,0,1.857,0.842,1.857,1.857s-0.842,1.857-1.857,1.857v7.43
		c1.915,0,3.715,2.264,3.715,4.644C26.447,24.927,26.026,25.348,25.518,25.348z M16.695,12.81c0-0.261-0.203-0.464-0.464-0.464
		s-0.464,0.203-0.464,0.464v6.5c0,0.262,0.203,0.465,0.464,0.465s0.464-0.203,0.464-0.465V12.81z"/>
</g>
</svg>
