<?xml version="1.0" encoding="utf-8"?>
<!-- Generator: Adobe Illustrator 16.0.0, SVG Export Plug-In . SVG Version: 6.00 Build 0)  -->
<!DOCTYPE svg PUBLIC "-//W3C//DTD SVG 1.1//EN" "http://www.w3.org/Graphics/SVG/1.1/DTD/svg11.dtd">
<svg version="1.1" id="Layer_1" xmlns="http://www.w3.org/2000/svg" xmlns:xlink="http://www.w3.org/1999/xlink" x="0px" y="0px"
	 width="36px" height="36px" viewBox="0 0 36 36" enable-background="new 0 0 36 36" xml:space="preserve">
<g>
	<path fill="#DCDEE3" d="M30.85,32.047c0,1.064-0.863,1.93-1.929,1.93H7.056c-1.065,0-1.929-0.862-1.929-1.93V5.039
		c0-1.065,0.864-1.929,1.929-1.929h12.861c1.065,0,2.554,0.623,3.296,1.367l6.271,6.27c0.742,0.744,1.365,2.231,1.365,3.296V32.047
		L30.85,32.047z M28.277,31.404V15.971h-8.36c-1.063,0-1.929-0.864-1.929-1.929v-8.36H7.699v25.722H28.277L28.277,31.404z
		 M28.116,13.398c-0.12-0.342-0.302-0.683-0.441-0.824l-6.29-6.29c-0.141-0.141-0.482-0.322-0.824-0.442v7.556H28.116z"/>
</g>
<g>
	<path fill="#BFC1C5" d="M35.967,35.34c0,0.354-0.288,0.643-0.643,0.643h-6.432c-0.354,0-0.643-0.288-0.643-0.643V31.48
		c0-0.354,0.288-0.643,0.643-0.643h0.215v-1.286c0-1.647,1.354-3.001,3.001-3.001s3.001,1.354,3.001,3.001v1.286h0.215
		c0.354,0,0.643,0.288,0.643,0.643V35.34z M33.823,30.838v-1.286c0-0.944-0.771-1.715-1.715-1.715s-1.715,0.771-1.715,1.715v1.286
		H33.823z"/>
</g>
</svg>
