<?xml version="1.0" encoding="utf-8"?>
<!-- Generator: Adobe Illustrator 16.0.0, SVG Export Plug-In . SVG Version: 6.00 Build 0)  -->
<!DOCTYPE svg PUBLIC "-//W3C//DTD SVG 1.1//EN" "http://www.w3.org/Graphics/SVG/1.1/DTD/svg11.dtd">
<svg version="1.1" id="Layer_1" xmlns="http://www.w3.org/2000/svg" xmlns:xlink="http://www.w3.org/1999/xlink" x="0px" y="0px"
	 width="36px" height="36px" viewBox="0 0 36 36" enable-background="new 0 0 36 36" xml:space="preserve">
<g>
	<path fill="#FF6C63" d="M30.85,32.047c0,1.064-0.863,1.93-1.929,1.93H7.056c-1.065,0-1.929-0.862-1.929-1.93V5.039
		c0-1.065,0.864-1.929,1.929-1.929h12.861c1.065,0,2.554,0.623,3.296,1.367l6.271,6.27c0.742,0.744,1.365,2.231,1.365,3.296V32.047
		L30.85,32.047z M28.277,31.404V15.971h-8.36c-1.063,0-1.929-0.864-1.929-1.929v-8.36H7.699v25.722H28.277L28.277,31.404z
		 M28.116,13.398c-0.12-0.342-0.302-0.683-0.441-0.824l-6.29-6.29c-0.141-0.141-0.482-0.322-0.824-0.442v7.556H28.116z"/>
</g>
<g>
	<path fill="#CC181E" d="M18.292,30.382c0.071,0.007,0.143,0.014,0.215,0.021c-0.292-0.579-0.592-1.401-0.592-2.033
		c0-2.42,4.252-2.742,4.252-6.377c0-3.209-2.24-4.869-4.86-6.075l0.01,0.009l-0.028-0.009c0.294,0.579,0.626,1.461,0.626,2.126
		c0,2.42-4.252,2.743-4.252,6.378C13.664,27.532,15.775,29.186,18.292,30.382z"/>
</g>
</svg>
