<?xml version="1.0" encoding="utf-8"?>
<!-- Generator: Adobe Illustrator 16.0.0, SVG Export Plug-In . SVG Version: 6.00 Build 0)  -->
<!DOCTYPE svg PUBLIC "-//W3C//DTD SVG 1.1//EN" "http://www.w3.org/Graphics/SVG/1.1/DTD/svg11.dtd">
<svg version="1.1" id="Layer_1" xmlns="http://www.w3.org/2000/svg" xmlns:xlink="http://www.w3.org/1999/xlink" x="0px" y="0px"
	 width="36px" height="36px" viewBox="0 0 36 36" enable-background="new 0 0 36 36" xml:space="preserve">
<g>
	<path fill="#DCDEE3" d="M36.012,15.971c0,1.427-1.146,2.572-2.572,2.572v7.717c0,1.406-1.166,2.572-2.572,2.572
		c-3.577-2.975-9.345-7.054-16.317-7.637C12.158,22,11.334,24.793,12.901,26.4c-1.406,2.311,0.402,3.939,2.532,5.607
		c-1.246,2.451-6.431,2.491-8.279,0.783c-1.166-3.577-2.894-7.154-1.487-11.676H3.215C1.447,21.115,0,19.668,0,17.9v-3.858
		c0-1.769,1.447-3.215,3.215-3.215h9.646c7.717,0,14.147-4.501,18.006-7.717c1.406,0,2.572,1.166,2.572,2.572v7.717
		C34.866,13.398,36.012,14.544,36.012,15.971z M30.867,6.365c-5.245,4.02-10.329,6.331-15.434,6.893v5.426
		c5.104,0.563,10.188,2.834,15.434,6.853V6.365z"/>
</g>
<g>
</g>
<g>
</g>
<g>
</g>
<g>
</g>
<g>
</g>
<g>
</g>
</svg>
