<?xml version="1.0" encoding="utf-8"?>
<!-- Generator: Adobe Illustrator 16.0.0, SVG Export Plug-In . SVG Version: 6.00 Build 0)  -->
<!DOCTYPE svg PUBLIC "-//W3C//DTD SVG 1.1//EN" "http://www.w3.org/Graphics/SVG/1.1/DTD/svg11.dtd">
<svg version="1.1" id="Layer_1" xmlns="http://www.w3.org/2000/svg" xmlns:xlink="http://www.w3.org/1999/xlink" x="0px" y="0px"
	 width="36px" height="36px" viewBox="0 0 36 36" enable-background="new 0 0 36 36" xml:space="preserve">
<g>
	<path fill="#DCDEE3" d="M26.032,25.406c0,2.484-2.016,4.5-4.5,4.5h-13c-2.484,0-4.5-2.016-4.5-4.5v-13c0-2.484,2.016-4.5,4.5-4.5
		h11c0.281,0,0.5,0.219,0.5,0.5v1c0,0.281-0.219,0.5-0.5,0.5h-11c-1.375,0-2.5,1.125-2.5,2.5v13c0,1.375,1.125,2.5,2.5,2.5h13
		c1.375,0,2.5-1.125,2.5-2.5v-5c0-0.281,0.219-0.5,0.5-0.5h1c0.281,0,0.5,0.219,0.5,0.5V25.406z M32.032,14.906c0,0.547-0.453,1-1,1
		c-0.266,0-0.516-0.109-0.703-0.297l-2.75-2.75L17.392,23.047c-0.094,0.094-0.234,0.156-0.359,0.156s-0.266-0.063-0.359-0.156
		l-1.781-1.781c-0.094-0.094-0.156-0.234-0.156-0.359s0.063-0.266,0.156-0.359l10.188-10.188l-2.75-2.75
		c-0.188-0.188-0.297-0.438-0.297-0.703c0-0.547,0.453-1,1-1h8c0.547,0,1,0.453,1,1V14.906z"/>
</g>
</svg>
