<?xml version="1.0" encoding="utf-8"?>
<!-- Generator: Adobe Illustrator 17.0.0, SVG Export Plug-In . SVG Version: 6.00 Build 0)  -->
<!DOCTYPE svg PUBLIC "-//W3C//DTD SVG 1.1//EN" "http://www.w3.org/Graphics/SVG/1.1/DTD/svg11.dtd">
<svg version="1.1" id="Layer_1" xmlns="http://www.w3.org/2000/svg" xmlns:xlink="http://www.w3.org/1999/xlink" x="0px" y="0px"
	 width="76px" height="26px" viewBox="0 0 76 26" enable-background="new 0 0 76 26" xml:space="preserve">
<g>
	<path fill="#323A45" d="M15.124,17.434H5.263L1.876,26H0L9.762,1.629h1.079L20.403,26h-1.909L15.124,17.434z M5.877,15.906h8.683
		l-3.304-8.749c-0.277-0.686-0.609-1.638-0.996-2.855C9.961,5.364,9.634,6.327,9.28,7.19L5.877,15.906z"/>
	<path fill="#323A45" d="M33.93,7.605c0.764,0,1.583,0.078,2.457,0.232l-0.315,1.577c-0.753-0.188-1.533-0.282-2.341-0.282
		c-1.539,0-2.8,0.653-3.785,1.959c-0.985,1.306-1.478,2.955-1.478,4.947V26h-1.644V7.954h1.395l0.166,3.254h0.116
		c0.741-1.328,1.533-2.26,2.374-2.797C31.716,7.874,32.735,7.605,33.93,7.605z"/>
	<path fill="#323A45" d="M43.225,2.94c0-1.063,0.348-1.594,1.045-1.594c0.344,0,0.611,0.139,0.807,0.415
		c0.193,0.277,0.289,0.67,0.289,1.179c0,0.498-0.096,0.891-0.289,1.179c-0.195,0.288-0.463,0.432-0.807,0.432
		C43.572,4.551,43.225,4.014,43.225,2.94z M45.1,26h-1.643V7.954H45.1V26z"/>
	<path fill="#323A45" d="M56.152,18.081l9.215-10.127h1.992l-7.105,7.703L67.973,26h-1.975l-6.857-9.114l-2.955,2.689V26h-1.643
		V0.168h1.643v12.949l-0.115,4.964H56.152z"/>
	<path fill="#323A45" d="M74.162,2.94c0-1.063,0.35-1.594,1.047-1.594c0.342,0,0.611,0.139,0.805,0.415
		c0.193,0.277,0.291,0.67,0.291,1.179c0,0.498-0.098,0.891-0.291,1.179c-0.193,0.288-0.463,0.432-0.805,0.432
		C74.512,4.551,74.162,4.014,74.162,2.94z M76.039,26h-1.645V7.954h1.645V26z"/>
</g>
<g>
</g>
<g>
</g>
<g>
</g>
<g>
</g>
<g>
</g>
<g>
</g>
</svg>
