<?xml version="1.0" encoding="utf-8"?>
<!-- Generator: Adobe Illustrator 16.0.0, SVG Export Plug-In . SVG Version: 6.00 Build 0)  -->
<!DOCTYPE svg PUBLIC "-//W3C//DTD SVG 1.1//EN" "http://www.w3.org/Graphics/SVG/1.1/DTD/svg11.dtd">
<svg version="1.1" id="Layer_1" xmlns="http://www.w3.org/2000/svg" xmlns:xlink="http://www.w3.org/1999/xlink" x="0px" y="0px"
	 width="36px" height="36px" viewBox="0 0 36 36" enable-background="new 0 0 36 36" xml:space="preserve">
<g>
	<path fill="#FF6C63" d="M25.518,25.348h-6.225l-0.74,7.01c-0.029,0.231-0.218,0.42-0.45,0.42h-0.015
		c-0.231,0-0.42-0.158-0.464-0.392l-1.103-7.038h-5.862c-0.508,0-0.929-0.421-0.929-0.929c0-2.38,1.799-4.644,3.715-4.644v-7.43
		c-1.016,0-1.857-0.842-1.857-1.857c0-1.015,0.842-1.857,1.857-1.857h9.288c1.017,0,1.857,0.842,1.857,1.857
		c0,1.015-0.842,1.857-1.857,1.857v7.43c1.916,0,3.716,2.264,3.716,4.644C26.447,24.927,26.025,25.348,25.518,25.348z M16.695,12.81
		c0-0.261-0.203-0.464-0.464-0.464c-0.261,0-0.464,0.203-0.464,0.464v6.5c0,0.262,0.203,0.465,0.464,0.465
		c0.261,0,0.464-0.203,0.464-0.465V12.81z"/>
</g>
<g>
	<path fill="#BFC1C5" d="M35.967,35.311c0,0.354-0.288,0.643-0.643,0.643h-6.432c-0.354,0-0.643-0.288-0.643-0.643v-3.859
		c0-0.354,0.288-0.643,0.643-0.643h0.215v-1.286c0-1.647,1.354-3.001,3.001-3.001s3.001,1.354,3.001,3.001v1.286h0.215
		c0.354,0,0.643,0.288,0.643,0.643V35.311z M33.823,30.809v-1.286c0-0.944-0.771-1.715-1.715-1.715s-1.715,0.771-1.715,1.715v1.286
		H33.823z"/>
</g>
<g>
	<path fill="#BFC1C5" d="M10.352,34.022c0,1.065-0.863,1.931-1.928,1.931H1.991c-1.063,0-1.929-0.864-1.929-1.931v-6.43
		c0-1.064,0.863-1.93,1.929-1.93h6.433c1.063,0,1.928,0.863,1.928,1.93V34.022z M7.352,30.593l-1.93-1.929l-3.645,3.644v1.93h1.929
		L7.352,30.593z M3.787,33.246l-0.349,0.349H3.064v-0.644H2.422v-0.375l0.348-0.349L3.787,33.246z M5.522,29.815l-1.949,1.949
		c-0.06,0.061-0.153,0.073-0.2,0.021c-0.054-0.047-0.041-0.141,0.02-0.201l1.949-1.949c0.062-0.061,0.154-0.074,0.201-0.021
		C5.596,29.662,5.582,29.756,5.522,29.815z M8.396,29.548c0.248-0.248,0.248-0.662,0-0.91l-1.02-1.019
		c-0.246-0.248-0.662-0.248-0.91,0l-0.615,0.616l1.929,1.93L8.396,29.548z"/>
</g>
</svg>
