<?xml version="1.0" encoding="utf-8"?>
<!-- Generator: Adobe Illustrator 16.0.0, SVG Export Plug-In . SVG Version: 6.00 Build 0)  -->
<!DOCTYPE svg PUBLIC "-//W3C//DTD SVG 1.1//EN" "http://www.w3.org/Graphics/SVG/1.1/DTD/svg11.dtd">
<svg version="1.1" id="Layer_1" xmlns="http://www.w3.org/2000/svg" xmlns:xlink="http://www.w3.org/1999/xlink" x="0px" y="0px"
	 width="36px" height="36px" viewBox="0 0 36 36" enable-background="new 0 0 36 36" xml:space="preserve">
<g>
	<path fill="#DCDEE3" d="M22.637,26.895c-0.59,0.591-1.502,0.721-2.128,0.096l-6.115-6.115l-0.008,5.1
		c0.009,0.408-0.156,0.816-0.452,1.111c-0.295,0.295-0.703,0.46-1.112,0.451l-1.312,0.009c-0.399,0-0.808-0.165-1.103-0.46
		c-0.295-0.295-0.46-0.703-0.469-1.111l0.009-11.318c0-0.4,0.166-0.808,0.46-1.103c0.295-0.296,0.703-0.461,1.112-0.47l11.3,0.01
		c0.417,0,0.825,0.164,1.12,0.459c0.295,0.296,0.452,0.695,0.451,1.112l0.01,1.294c0,0.418-0.165,0.826-0.461,1.121
		c-0.295,0.295-0.703,0.46-1.119,0.46l-5.091-0.001l6.114,6.115c0.626,0.625,0.496,1.537-0.095,2.129L22.637,26.895z"/>
</g>
</svg>
